<svg width="601" height="63" viewBox="0 0 601 63" fill="none" xmlns="http://www.w3.org/2000/svg">
<path d="M37.1608 0H116.309L153.032 62.8265H97.8269L94.4066 54.7855H59.063L55.1626 62.8265H0.617188L37.1608 0ZM76.8248 14.6415H76.4048L65.3037 37.5638H88.226L76.8248 14.6415ZM162.393 0H262.423C286.426 0 300.467 6.60076 300.467 18.482C300.467 30.3631 284.146 36.0637 267.584 36.8438L304.308 62.8265H241.181L216.159 42.6045H215.859V62.8265H162.453L162.393 0ZM215.799 30.003H232.24C244.242 30.003 247.002 27.6629 247.002 22.9824C247.002 18.3019 242.561 17.462 233.14 17.462H215.799V30.003ZM316.549 0H435.841V19.922H369.834V25.9226H435.841V40.5041H369.834V46.5047H435.841V62.9462H316.369L316.549 0ZM484.566 0H563.894L600.617 62.8265H545.412L541.991 54.7855H506.648L502.627 62.8265H448.202L484.566 0ZM524.23 14.6415H523.81L512.708 37.5638H535.631L524.23 14.6415Z" fill="#FF007A"/>
</svg>
